<svg xmlns="http://www.w3.org/2000/svg" viewBox="0 0 64 64">
  <defs>
    <linearGradient id="bg" x1="0" x2="1" y1="0" y2="1">
      <stop offset="0%" stop-color="#0f1a2d" />
      <stop offset="100%" stop-color="#172a45" />
    </linearGradient>
    <linearGradient id="accent" x1="0" x2="1" y1="0" y2="1">
      <stop offset="0%" stop-color="#57d06a" />
      <stop offset="100%" stop-color="#51c9ff" />
    </linearGradient>
  </defs>
  <rect width="64" height="64" rx="16" fill="url(#bg)" />
  <path
    d="M44 18H24.5c-5.1 0-9.2 3.8-9.2 8.6 0 4.4 3.2 7.3 9.5 8.7l7.7 1.7c3.4.8 5 1.8 5 3.5 0 2.1-2 3.5-5.1 3.5H16.8v8H35c7.8 0 12.9-4.5 12.9-11 0-4.9-3.2-8.1-9.8-9.6l-7.5-1.7c-3-.7-4.6-1.6-4.6-3.2 0-1.9 1.8-3.2 4.5-3.2H44z"
    fill="url(#accent)"
  />
  <path
    d="M46.5 13.5 18 50.5"
    stroke="#edf5ff"
    stroke-linecap="round"
    stroke-width="3.5"
    opacity=".9"
  />
</svg>
